<svg width="72" height="24" viewBox="0 0 72 24" fill="none" xmlns="http://www.w3.org/2000/svg">
<path d="M5.25 11.25H20.25C20.4489 11.25 20.6397 11.329 20.7803 11.4697C20.921 11.6103 21 11.8011 21 12C21 12.1989 20.921 12.3897 20.7803 12.5303C20.6397 12.671 20.4489 12.75 20.25 12.75H5.25C5.05109 12.75 4.86032 12.671 4.71967 12.5303C4.57902 12.3897 4.5 12.1989 4.5 12C4.5 11.8011 4.57902 11.6103 4.71967 11.4697C4.86032 11.329 5.05109 11.25 5.25 11.25Z" fill="#364572"/>
<path d="M5.55989 12.0009L11.7804 18.2199C11.9212 18.3608 12.0003 18.5518 12.0003 18.7509C12.0003 18.9501 11.9212 19.1411 11.7804 19.2819C11.6396 19.4228 11.4486 19.5019 11.2494 19.5019C11.0502 19.5019 10.8592 19.4228 10.7184 19.2819L3.96839 12.5319C3.89854 12.4623 3.84313 12.3795 3.80532 12.2884C3.76751 12.1973 3.74805 12.0996 3.74805 12.0009C3.74805 11.9023 3.76751 11.8046 3.80532 11.7135C3.84313 11.6224 3.89854 11.5396 3.96839 11.4699L10.7184 4.71995C10.8592 4.57912 11.0502 4.5 11.2494 4.5C11.4486 4.5 11.6396 4.57912 11.7804 4.71995C11.9212 4.86078 12.0003 5.05178 12.0003 5.25095C12.0003 5.45011 11.9212 5.64112 11.7804 5.78195L5.55989 12.0009Z" fill="#364572"/>
<path d="M43.2031 18.1641C42.0234 18.1641 41.1094 17.5703 40.625 16.6094H40.5859V18H38.8984V6.72656H40.5859V11.1797H40.625C41.1172 10.2109 42.0547 9.625 43.2188 9.625C45.2812 9.625 46.6406 11.2656 46.6406 13.8828V13.8906C46.6406 16.5078 45.2891 18.1641 43.2031 18.1641ZM42.7578 16.7109C44.0859 16.7109 44.9141 15.6406 44.9141 13.8906V13.8828C44.9141 12.1484 44.0859 11.0703 42.7578 11.0703C41.4844 11.0703 40.5781 12.1797 40.5781 13.8828V13.8906C40.5781 15.6016 41.4766 16.7109 42.7578 16.7109ZM50.3594 18.1484C48.7188 18.1484 47.6172 17.1406 47.6172 15.6641V15.6484C47.6172 14.2188 48.7266 13.3438 50.6719 13.2266L52.9062 13.0938V12.4766C52.9062 11.5703 52.3203 11.0234 51.2734 11.0234C50.2969 11.0234 49.6953 11.4844 49.5547 12.1406L49.5391 12.2109H47.9453L47.9531 12.125C48.0703 10.7109 49.2969 9.625 51.3203 9.625C53.3281 9.625 54.6016 10.6875 54.6016 12.3359V18H52.9062V16.7031H52.875C52.3984 17.5859 51.4453 18.1484 50.3594 18.1484ZM49.3203 15.625C49.3203 16.3438 49.9141 16.7969 50.8203 16.7969C52.0078 16.7969 52.9062 15.9922 52.9062 14.9219V14.2812L50.8984 14.4062C49.8828 14.4688 49.3203 14.9141 49.3203 15.6094V15.625ZM59.7734 18.1641C57.375 18.1641 55.875 16.5156 55.875 13.8828V13.875C55.875 11.2734 57.4062 9.625 59.75 9.625C61.8672 9.625 63.1484 10.9844 63.2891 12.5312L63.2969 12.5859H61.6875L61.6719 12.5234C61.4922 11.7188 60.8672 11.0391 59.7656 11.0391C58.4531 11.0391 57.6016 12.1328 57.6016 13.8906V13.8984C57.6016 15.6953 58.4688 16.75 59.7734 16.75C60.8125 16.75 61.4766 16.1484 61.6797 15.2578L61.6875 15.1953H63.3125L63.3047 15.25C63.125 16.8984 61.75 18.1641 59.7734 18.1641ZM64.6016 18V6.72656H66.2891V13.2891H66.3281L69.625 9.78125H71.6094L68.2344 13.3281L71.7422 18H69.7812L66.9922 14.3438L66.2891 15.0391V18H64.6016Z" fill="#364572"/>
</svg>
