<svg width="50" height="50" viewBox="0 0 50 50" fill="none" xmlns="http://www.w3.org/2000/svg">
<path d="M35.6913 24.9861V44.7909H22.9557V49.9991H35.3202L40.8735 44.4458V41.0967H44.2226L49.7443 35.5769V24.9879H35.6913V24.9861ZM44.5343 35.9201H40.8698V30.1683H44.5343V35.9201Z" fill="url(#paint0_linear_989_3828)"/>
<path d="M35.6913 24.9861V44.7909H22.9557V49.9991H35.3202L40.8735 44.4458V41.0967H44.2226L49.7443 35.5769V24.9879H35.6913V24.9861ZM44.5343 35.9201H40.8698V30.1683H44.5343V35.9201Z" fill="black" fill-opacity="0.2"/>
<path d="M35.6913 24.9861V44.7909H22.9557V49.9991H35.3202L40.8735 44.4458V41.0967H44.2226L49.7443 35.5769V24.9879H35.6913V24.9861ZM44.5343 35.9201H40.8698V30.1683H44.5343V35.9201Z" fill="black" fill-opacity="0.2"/>
<path d="M35.6913 24.9861V44.7909H22.9557V49.9991H35.3202L40.8735 44.4458V41.0967H44.2226L49.7443 35.5769V24.9879H35.6913V24.9861ZM44.5343 35.9201H40.8698V30.1683H44.5343V35.9201Z" fill="black" fill-opacity="0.2"/>
<path d="M35.6913 24.9861V44.7909H22.9557V49.9991H35.3202L40.8735 44.4458V41.0967H44.2226L49.7443 35.5769V24.9879H35.6913V24.9861ZM44.5343 35.9201H40.8698V30.1683H44.5343V35.9201Z" fill="black" fill-opacity="0.2"/>
<path d="M35.6913 24.9861V44.7909H22.9557V49.9991H35.3202L40.8735 44.4458V41.0967H44.2226L49.7443 35.5769V24.9879H35.6913V24.9861ZM44.5343 35.9201H40.8698V30.1683H44.5343V35.9201Z" fill="black" fill-opacity="0.2"/>
<path d="M35.6913 24.9861V44.7909H22.9557V49.9991H35.3202L40.8735 44.4458V41.0967H44.2226L49.7443 35.5769V24.9879H35.6913V24.9861ZM44.5343 35.9201H40.8698V30.1683H44.5343V35.9201Z" fill="black" fill-opacity="0.2"/>
<path d="M35.6913 24.9861V44.7909H22.9557V49.9991H35.3202L40.8735 44.4458V41.0967H44.2226L49.7443 35.5769V24.9879H35.6913V24.9861ZM44.5343 35.9201H40.8698V30.1683H44.5343V35.9201Z" fill="black" fill-opacity="0.2"/>
<path d="M35.6913 24.9861V44.7909H22.9557V49.9991H35.3202L40.8735 44.4458V41.0967H44.2226L49.7443 35.5769V24.9879H35.6913V24.9861ZM44.5343 35.9201H40.8698V30.1683H44.5343V35.9201Z" fill="black" fill-opacity="0.2"/>
<path d="M35.6913 24.9861V44.7909H22.9557V49.9991H35.3202L40.8735 44.4458V41.0967H44.2226L49.7443 35.5769V24.9879H35.6913V24.9861ZM44.5343 35.9201H40.8698V30.1683H44.5343V35.9201Z" fill="black" fill-opacity="0.2"/>
<path d="M44.5339 8.90047L40.8695 5.20818L40.8416 5.18034L35.6891 0.0278246L35.6613 0H14.053L8.87265 5.18034V8.90047H5.15252L0 14.053V35.9192L8.87265 44.764V44.7918H8.90048L14.053 50H14.0808V14.0808H49.744L44.5339 8.90047ZM8.87265 37.4351L7.32708 35.9173L5.18035 33.7706V14.0808H8.87265V37.4351ZM14.0808 8.90047V5.18034H33.5145L35.6891 7.35491L37.2068 8.90047H14.0808Z" fill="url(#paint1_linear_989_3828)"/>
<path d="M44.5339 8.90047L40.8695 5.20818L40.8416 5.18034L35.6891 0.0278246L35.6613 0H14.053L8.87265 5.18034V8.90047H5.15252L0 14.053V35.9192L8.87265 44.764V44.7918H8.90048L14.053 50H14.0808V14.0808H49.744L44.5339 8.90047ZM8.87265 37.4351L7.32708 35.9173L5.18035 33.7706V14.0808H8.87265V37.4351ZM14.0808 8.90047V5.18034H33.5145L35.6891 7.35491L37.2068 8.90047H14.0808Z" fill="black" fill-opacity="0.2"/>
<path d="M44.5339 8.90047L40.8695 5.20818L40.8416 5.18034L35.6891 0.0278246L35.6613 0H14.053L8.87265 5.18034V8.90047H5.15252L0 14.053V35.9192L8.87265 44.764V44.7918H8.90048L14.053 50H14.0808V14.0808H49.744L44.5339 8.90047ZM8.87265 37.4351L7.32708 35.9173L5.18035 33.7706V14.0808H8.87265V37.4351ZM14.0808 8.90047V5.18034H33.5145L35.6891 7.35491L37.2068 8.90047H14.0808Z" fill="black" fill-opacity="0.2"/>
<path d="M44.5339 8.90047L40.8695 5.20818L40.8416 5.18034L35.6891 0.0278246L35.6613 0H14.053L8.87265 5.18034V8.90047H5.15252L0 14.053V35.9192L8.87265 44.764V44.7918H8.90048L14.053 50H14.0808V14.0808H49.744L44.5339 8.90047ZM8.87265 37.4351L7.32708 35.9173L5.18035 33.7706V14.0808H8.87265V37.4351ZM14.0808 8.90047V5.18034H33.5145L35.6891 7.35491L37.2068 8.90047H14.0808Z" fill="black" fill-opacity="0.2"/>
<path d="M44.5339 8.90047L40.8695 5.20818L40.8416 5.18034L35.6891 0.0278246L35.6613 0H14.053L8.87265 5.18034V8.90047H5.15252L0 14.053V35.9192L8.87265 44.764V44.7918H8.90048L14.053 50H14.0808V14.0808H49.744L44.5339 8.90047ZM8.87265 37.4351L7.32708 35.9173L5.18035 33.7706V14.0808H8.87265V37.4351ZM14.0808 8.90047V5.18034H33.5145L35.6891 7.35491L37.2068 8.90047H14.0808Z" fill="black" fill-opacity="0.2"/>
<path d="M44.5339 8.90047L40.8695 5.20818L40.8416 5.18034L35.6891 0.0278246L35.6613 0H14.053L8.87265 5.18034V8.90047H5.15252L0 14.053V35.9192L8.87265 44.764V44.7918H8.90048L14.053 50H14.0808V14.0808H49.744L44.5339 8.90047ZM8.87265 37.4351L7.32708 35.9173L5.18035 33.7706V14.0808H8.87265V37.4351ZM14.0808 8.90047V5.18034H33.5145L35.6891 7.35491L37.2068 8.90047H14.0808Z" fill="black" fill-opacity="0.2"/>
<path d="M44.5339 8.90047L40.8695 5.20818L40.8416 5.18034L35.6891 0.0278246L35.6613 0H14.053L8.87265 5.18034V8.90047H5.15252L0 14.053V35.9192L8.87265 44.764V44.7918H8.90048L14.053 50H14.0808V14.0808H49.744L44.5339 8.90047ZM8.87265 37.4351L7.32708 35.9173L5.18035 33.7706V14.0808H8.87265V37.4351ZM14.0808 8.90047V5.18034H33.5145L35.6891 7.35491L37.2068 8.90047H14.0808Z" fill="black" fill-opacity="0.2"/>
<path d="M44.5339 8.90047L40.8695 5.20818L40.8416 5.18034L35.6891 0.0278246L35.6613 0H14.053L8.87265 5.18034V8.90047H5.15252L0 14.053V35.9192L8.87265 44.764V44.7918H8.90048L14.053 50H14.0808V14.0808H49.744L44.5339 8.90047ZM8.87265 37.4351L7.32708 35.9173L5.18035 33.7706V14.0808H8.87265V37.4351ZM14.0808 8.90047V5.18034H33.5145L35.6891 7.35491L37.2068 8.90047H14.0808Z" fill="black" fill-opacity="0.2"/>
<path d="M44.5339 8.90047L40.8695 5.20818L40.8416 5.18034L35.6891 0.0278246L35.6613 0H14.053L8.87265 5.18034V8.90047H5.15252L0 14.053V35.9192L8.87265 44.764V44.7918H8.90048L14.053 50H14.0808V14.0808H49.744L44.5339 8.90047ZM8.87265 37.4351L7.32708 35.9173L5.18035 33.7706V14.0808H8.87265V37.4351ZM14.0808 8.90047V5.18034H33.5145L35.6891 7.35491L37.2068 8.90047H14.0808Z" fill="black" fill-opacity="0.2"/>
<path d="M44.5339 8.90047L40.8695 5.20818L40.8416 5.18034L35.6891 0.0278246L35.6613 0H14.053L8.87265 5.18034V8.90047H5.15252L0 14.053V35.9192L8.87265 44.764V44.7918H8.90048L14.053 50H14.0808V14.0808H49.744L44.5339 8.90047ZM8.87265 37.4351L7.32708 35.9173L5.18035 33.7706V14.0808H8.87265V37.4351ZM14.0808 8.90047V5.18034H33.5145L35.6891 7.35491L37.2068 8.90047H14.0808Z" fill="black" fill-opacity="0.2"/>
<path d="M35.6806 35.9061V41.0939H22.9394V49.9832H17.7516V35.9061H35.6806Z" fill="url(#paint2_linear_989_3828)"/>
<path d="M35.6806 35.9061V41.0939H22.9394V49.9832H17.7516V35.9061H35.6806Z" fill="black" fill-opacity="0.2"/>
<path d="M35.6806 35.9061V41.0939H22.9394V49.9832H17.7516V35.9061H35.6806Z" fill="black" fill-opacity="0.2"/>
<path d="M35.6806 35.9061V41.0939H22.9394V49.9832H17.7516V35.9061H35.6806Z" fill="black" fill-opacity="0.2"/>
<path d="M35.6806 35.9061V41.0939H22.9394V49.9832H17.7516V35.9061H35.6806Z" fill="black" fill-opacity="0.2"/>
<path d="M35.6806 35.9061V41.0939H22.9394V49.9832H17.7516V35.9061H35.6806Z" fill="black" fill-opacity="0.2"/>
<path d="M35.6806 35.9061V41.0939H22.9394V49.9832H17.7516V35.9061H35.6806Z" fill="black" fill-opacity="0.2"/>
<path d="M35.6806 35.9061V41.0939H22.9394V49.9832H17.7516V35.9061H35.6806Z" fill="black" fill-opacity="0.2"/>
<path d="M35.6806 35.9061V41.0939H22.9394V49.9832H17.7516V35.9061H35.6806Z" fill="black" fill-opacity="0.2"/>
<path d="M35.6806 35.9061V41.0939H22.9394V49.9832H17.7516V35.9061H35.6806Z" fill="black" fill-opacity="0.2"/>
<path d="M18.1349 0H14.0807V5.18034H18.1349V0Z" fill="url(#paint3_linear_989_3828)"/>
<path d="M18.1349 0H14.0807V5.18034H18.1349V0Z" fill="black" fill-opacity="0.2"/>
<path d="M18.1349 0H14.0807V5.18034H18.1349V0Z" fill="black" fill-opacity="0.2"/>
<path d="M18.1349 0H14.0807V5.18034H18.1349V0Z" fill="black" fill-opacity="0.2"/>
<path d="M18.1349 0H14.0807V5.18034H18.1349V0Z" fill="black" fill-opacity="0.2"/>
<path d="M18.1349 0H14.0807V5.18034H18.1349V0Z" fill="black" fill-opacity="0.2"/>
<path d="M18.1349 0H14.0807V5.18034H18.1349V0Z" fill="black" fill-opacity="0.2"/>
<path d="M18.1349 0H14.0807V5.18034H18.1349V0Z" fill="black" fill-opacity="0.2"/>
<path d="M18.1349 0H14.0807V5.18034H18.1349V0Z" fill="black" fill-opacity="0.2"/>
<path d="M18.1349 0H14.0807V5.18034H18.1349V0Z" fill="black" fill-opacity="0.2"/>
<path d="M18.1349 8.89722H14.0807V14.0776H18.1349V8.89722Z" fill="url(#paint4_linear_989_3828)"/>
<path d="M18.1349 8.89722H14.0807V14.0776H18.1349V8.89722Z" fill="black" fill-opacity="0.2"/>
<path d="M18.1349 8.89722H14.0807V14.0776H18.1349V8.89722Z" fill="black" fill-opacity="0.2"/>
<path d="M18.1349 8.89722H14.0807V14.0776H18.1349V8.89722Z" fill="black" fill-opacity="0.2"/>
<path d="M18.1349 8.89722H14.0807V14.0776H18.1349V8.89722Z" fill="black" fill-opacity="0.2"/>
<path d="M18.1349 8.89722H14.0807V14.0776H18.1349V8.89722Z" fill="black" fill-opacity="0.2"/>
<path d="M18.1349 8.89722H14.0807V14.0776H18.1349V8.89722Z" fill="black" fill-opacity="0.2"/>
<path d="M18.1349 8.89722H14.0807V14.0776H18.1349V8.89722Z" fill="black" fill-opacity="0.2"/>
<path d="M18.1349 8.89722H14.0807V14.0776H18.1349V8.89722Z" fill="black" fill-opacity="0.2"/>
<path d="M18.1349 8.89722H14.0807V14.0776H18.1349V8.89722Z" fill="black" fill-opacity="0.2"/>
<path d="M40.8717 41.1039V35.9236H44.9258L44.2207 41.1039H40.8717Z" fill="url(#paint5_linear_989_3828)"/>
<path d="M40.8717 41.1039V35.9236H44.9258L44.2207 41.1039H40.8717Z" fill="black" fill-opacity="0.2"/>
<path d="M40.8717 41.1039V35.9236H44.9258L44.2207 41.1039H40.8717Z" fill="black" fill-opacity="0.2"/>
<path d="M40.8717 41.1039V35.9236H44.9258L44.2207 41.1039H40.8717Z" fill="black" fill-opacity="0.2"/>
<path d="M40.8717 41.1039V35.9236H44.9258L44.2207 41.1039H40.8717Z" fill="black" fill-opacity="0.2"/>
<path d="M40.8717 41.1039V35.9236H44.9258L44.2207 41.1039H40.8717Z" fill="black" fill-opacity="0.2"/>
<path d="M40.8717 41.1039V35.9236H44.9258L44.2207 41.1039H40.8717Z" fill="black" fill-opacity="0.2"/>
<path d="M40.8717 41.1039V35.9236H44.9258L44.2207 41.1039H40.8717Z" fill="black" fill-opacity="0.2"/>
<path d="M40.8717 41.1039V35.9236H44.9258L44.2207 41.1039H40.8717Z" fill="black" fill-opacity="0.2"/>
<path d="M40.8717 41.1039V35.9236H44.9258L44.2207 41.1039H40.8717Z" fill="black" fill-opacity="0.2"/>
<path d="M35.6812 35.9061V41.0865H31.6271L32.3321 35.9061H35.6812Z" fill="url(#paint6_linear_989_3828)"/>
<path d="M35.6812 35.9061V41.0865H31.6271L32.3321 35.9061H35.6812Z" fill="black" fill-opacity="0.2"/>
<path d="M35.6812 35.9061V41.0865H31.6271L32.3321 35.9061H35.6812Z" fill="black" fill-opacity="0.2"/>
<path d="M35.6812 35.9061V41.0865H31.6271L32.3321 35.9061H35.6812Z" fill="black" fill-opacity="0.2"/>
<path d="M35.6812 35.9061V41.0865H31.6271L32.3321 35.9061H35.6812Z" fill="black" fill-opacity="0.2"/>
<path d="M35.6812 35.9061V41.0865H31.6271L32.3321 35.9061H35.6812Z" fill="black" fill-opacity="0.2"/>
<path d="M35.6812 35.9061V41.0865H31.6271L32.3321 35.9061H35.6812Z" fill="black" fill-opacity="0.2"/>
<path d="M35.6812 35.9061V41.0865H31.6271L32.3321 35.9061H35.6812Z" fill="black" fill-opacity="0.2"/>
<path d="M35.6812 35.9061V41.0865H31.6271L32.3321 35.9061H35.6812Z" fill="black" fill-opacity="0.2"/>
<path d="M35.6812 35.9061V41.0865H31.6271L32.3321 35.9061H35.6812Z" fill="black" fill-opacity="0.2"/>
<path d="M8.87234 8.89722V14.0776H4.81824L5.42682 8.89722H8.87234Z" fill="url(#paint7_linear_989_3828)"/>
<path d="M8.87234 8.89722V14.0776H4.81824L5.42682 8.89722H8.87234Z" fill="black" fill-opacity="0.2"/>
<path d="M8.87234 8.89722V14.0776H4.81824L5.42682 8.89722H8.87234Z" fill="black" fill-opacity="0.2"/>
<path d="M8.87234 8.89722V14.0776H4.81824L5.42682 8.89722H8.87234Z" fill="black" fill-opacity="0.2"/>
<path d="M8.87234 8.89722V14.0776H4.81824L5.42682 8.89722H8.87234Z" fill="black" fill-opacity="0.2"/>
<path d="M8.87234 8.89722V14.0776H4.81824L5.42682 8.89722H8.87234Z" fill="black" fill-opacity="0.2"/>
<path d="M8.87234 8.89722V14.0776H4.81824L5.42682 8.89722H8.87234Z" fill="black" fill-opacity="0.2"/>
<path d="M8.87234 8.89722V14.0776H4.81824L5.42682 8.89722H8.87234Z" fill="black" fill-opacity="0.2"/>
<path d="M8.87234 8.89722V14.0776H4.81824L5.42682 8.89722H8.87234Z" fill="black" fill-opacity="0.2"/>
<path d="M8.87234 8.89722V14.0776H4.81824L5.42682 8.89722H8.87234Z" fill="black" fill-opacity="0.2"/>
<path d="M8.87258 37.4378V44.7945L-6.10352e-05 35.9219L5.18029 33.7751L8.87258 37.4378Z" fill="url(#paint8_linear_989_3828)"/>
<path d="M8.87258 37.4378V44.7945L-6.10352e-05 35.9219L5.18029 33.7751L8.87258 37.4378Z" fill="black" fill-opacity="0.2"/>
<path d="M8.87258 37.4378V44.7945L-6.10352e-05 35.9219L5.18029 33.7751L8.87258 37.4378Z" fill="black" fill-opacity="0.2"/>
<path d="M8.87258 37.4378V44.7945L-6.10352e-05 35.9219L5.18029 33.7751L8.87258 37.4378Z" fill="black" fill-opacity="0.2"/>
<path d="M8.87258 37.4378V44.7945L-6.10352e-05 35.9219L5.18029 33.7751L8.87258 37.4378Z" fill="black" fill-opacity="0.2"/>
<path d="M8.87258 37.4378V44.7945L-6.10352e-05 35.9219L5.18029 33.7751L8.87258 37.4378Z" fill="black" fill-opacity="0.2"/>
<path d="M8.87258 37.4378V44.7945L-6.10352e-05 35.9219L5.18029 33.7751L8.87258 37.4378Z" fill="black" fill-opacity="0.2"/>
<path d="M8.87258 37.4378V44.7945L-6.10352e-05 35.9219L5.18029 33.7751L8.87258 37.4378Z" fill="black" fill-opacity="0.2"/>
<path d="M8.87258 37.4378V44.7945L-6.10352e-05 35.9219L5.18029 33.7751L8.87258 37.4378Z" fill="black" fill-opacity="0.2"/>
<path d="M8.87258 37.4378V44.7945L-6.10352e-05 35.9219L5.18029 33.7751L8.87258 37.4378Z" fill="black" fill-opacity="0.2"/>
<defs>
<linearGradient id="paint0_linear_989_3828" x1="36.3504" y1="-39.1584" x2="36.3504" y2="43.6987" gradientUnits="userSpaceOnUse">
<stop stop-color="#FFCA34"/>
<stop offset="0.4944" stop-color="#EB2F91"/>
<stop offset="1" stop-color="#1150E8"/>
</linearGradient>
<linearGradient id="paint1_linear_989_3828" x1="24.8726" y1="-128.222" x2="24.8726" y2="37.4058" gradientUnits="userSpaceOnUse">
<stop stop-color="#FFCA34"/>
<stop offset="0.4944" stop-color="#EB2F91"/>
<stop offset="1" stop-color="#1150E8"/>
</linearGradient>
<linearGradient id="paint2_linear_989_3828" x1="26.7163" y1="-0.193864" x2="26.7163" y2="46.4374" gradientUnits="userSpaceOnUse">
<stop stop-color="#FFCA34"/>
<stop offset="0.4944" stop-color="#EB2F91"/>
<stop offset="1" stop-color="#1150E8"/>
</linearGradient>
<linearGradient id="paint3_linear_989_3828" x1="16.1079" y1="-13.2847" x2="16.1079" y2="3.87549" gradientUnits="userSpaceOnUse">
<stop stop-color="#FFCA34"/>
<stop offset="0.4944" stop-color="#EB2F91"/>
<stop offset="1" stop-color="#1150E8"/>
</linearGradient>
<linearGradient id="paint4_linear_989_3828" x1="16.1079" y1="-4.38752" x2="16.1079" y2="12.7727" gradientUnits="userSpaceOnUse">
<stop stop-color="#FFCA34"/>
<stop offset="0.4944" stop-color="#EB2F91"/>
<stop offset="1" stop-color="#1150E8"/>
</linearGradient>
<linearGradient id="paint5_linear_989_3828" x1="42.8988" y1="22.6388" x2="42.8988" y2="39.7991" gradientUnits="userSpaceOnUse">
<stop stop-color="#FFCA34"/>
<stop offset="0.4944" stop-color="#EB2F91"/>
<stop offset="1" stop-color="#1150E8"/>
</linearGradient>
<linearGradient id="paint6_linear_989_3828" x1="33.6542" y1="22.6214" x2="33.6542" y2="39.7816" gradientUnits="userSpaceOnUse">
<stop stop-color="#FFCA34"/>
<stop offset="0.4944" stop-color="#EB2F91"/>
<stop offset="1" stop-color="#1150E8"/>
</linearGradient>
<linearGradient id="paint7_linear_989_3828" x1="6.84534" y1="-4.38752" x2="6.84534" y2="12.7727" gradientUnits="userSpaceOnUse">
<stop stop-color="#FFCA34"/>
<stop offset="0.4944" stop-color="#EB2F91"/>
<stop offset="1" stop-color="#1150E8"/>
</linearGradient>
<linearGradient id="paint8_linear_989_3828" x1="4.43638" y1="5.51656" x2="4.43638" y2="42.0189" gradientUnits="userSpaceOnUse">
<stop stop-color="#FFCA34"/>
<stop offset="0.4944" stop-color="#EB2F91"/>
<stop offset="1" stop-color="#1150E8"/>
</linearGradient>
</defs>
</svg>
