<svg width="238" height="50" viewBox="0 0 238 50" fill="none" xmlns="http://www.w3.org/2000/svg">
<path d="M96.7992 23.7296V25.778C96.7992 29.8748 95.4485 33.2239 92.7451 35.8252C90.0418 38.4283 86.5164 39.729 82.1636 39.729C77.5566 39.729 73.7511 38.2354 70.7509 35.2481C67.7507 32.2627 66.2496 28.5927 66.2496 24.2417C66.2496 19.9186 67.7488 16.256 70.7509 13.2558C73.7511 10.2555 77.4713 8.75452 81.9076 8.75452C84.6944 8.75452 87.2401 9.39463 89.5445 10.6749C91.8489 11.9551 93.6413 13.6751 94.9215 15.8367L90.6986 18.2673C89.9026 16.846 88.7207 15.7012 87.1566 14.8329C85.5924 13.9664 83.8428 13.5322 81.9094 13.5322C78.7793 13.5322 76.2058 14.5564 74.1871 16.603C72.1666 18.6514 71.1572 21.21 71.1572 24.2826C71.1572 27.3533 72.174 29.9008 74.2076 31.9195C76.2411 33.9401 78.9073 34.9494 82.2082 34.9494C84.854 34.9494 87.0081 34.3297 88.6724 33.094C90.3368 31.8564 91.3962 30.1995 91.8508 28.1233H81.8667V23.7296H96.7992Z" fill="#071222"/>
<path d="M117.875 17.8403H122.484V39.174H117.875V36.1032C116.14 38.5209 113.652 39.7287 110.409 39.7287C107.479 39.7287 104.976 38.6415 102.9 36.4651C100.823 34.2886 99.7863 31.6372 99.7863 28.5071C99.7863 25.3492 100.823 22.6904 102.9 20.5288C104.976 18.3672 107.479 17.2855 110.409 17.2855C113.652 17.2855 116.14 18.4804 117.875 20.8683V17.8403ZM106.314 33.3906C107.594 34.6857 109.201 35.3314 111.136 35.3314C113.069 35.3314 114.676 34.6838 115.956 33.3906C117.237 32.0974 117.877 30.4683 117.877 28.5053C117.877 26.5422 117.237 24.915 115.956 23.6199C114.676 22.3267 113.069 21.6792 111.136 21.6792C109.201 21.6792 107.594 22.3267 106.314 23.6199C105.033 24.915 104.393 26.5422 104.393 28.5053C104.393 30.4683 105.033 32.0974 106.314 33.3906Z" fill="#071222"/>
<path d="M131.87 23.6997C131.87 24.4029 132.263 24.9558 133.052 25.364C133.839 25.7722 134.785 26.1452 135.889 26.4847C136.991 26.8243 138.123 27.1731 139.281 27.5293C140.438 27.8856 141.405 28.5461 142.181 29.5091C142.958 30.4739 143.346 31.6892 143.346 33.1568C143.346 35.2052 142.557 36.812 140.978 37.9791C139.399 39.1462 137.416 39.7287 135.026 39.7287C132.92 39.7287 131.115 39.2871 129.606 38.4058C128.1 37.5245 127.003 36.3018 126.32 34.7358L130.289 32.4314C131.028 34.4797 132.607 35.5039 135.024 35.5039C137.442 35.5039 138.65 34.708 138.65 33.1141C138.65 32.4313 138.258 31.8766 137.477 31.4498C136.694 31.0231 135.752 30.639 134.648 30.2995C133.545 29.9599 132.414 29.6111 131.256 29.2549C130.098 28.8986 129.128 28.2585 128.347 27.3326C127.564 26.4086 127.172 25.236 127.172 23.8129C127.172 21.8499 127.92 20.2709 129.413 19.0779C130.907 17.883 132.762 17.2855 134.982 17.2855C136.744 17.2855 138.316 17.677 139.696 18.4582C141.075 19.2411 142.134 20.3284 142.875 21.7218L138.991 23.8983C138.251 22.2766 136.915 21.4676 134.982 21.4676C134.1 21.4676 133.36 21.6569 132.762 22.0354C132.169 22.4139 131.87 22.9687 131.87 23.6997Z" fill="#071222"/>
<path d="M160.671 17.8401H165.577L157.385 39.8566C155.336 45.3746 151.865 47.9907 146.974 47.7069V43.3967C148.425 43.4821 149.59 43.1759 150.472 42.4801C151.353 41.7825 152.078 40.6952 152.648 39.2164L152.861 38.7897L143.816 17.8401H148.85L155.21 33.3255L160.671 17.8401Z" fill="#071222"/>
<path d="M184.519 17.8403H189.128V39.174H184.519V36.1032C182.784 38.5209 180.294 39.7287 177.052 39.7287C174.123 39.7287 171.62 38.6415 169.544 36.4651C167.467 34.2886 166.43 31.6372 166.43 28.5071C166.43 25.3492 167.467 22.6904 169.544 20.5288C171.62 18.3672 174.123 17.2855 177.052 17.2855C180.296 17.2855 182.784 18.4804 184.519 20.8683V17.8403ZM172.956 33.3906C174.236 34.6857 175.843 35.3314 177.778 35.3314C179.711 35.3314 181.318 34.6838 182.598 33.3906C183.879 32.0974 184.519 30.4683 184.519 28.5053C184.519 26.5422 183.879 24.915 182.598 23.6199C181.318 22.3267 179.711 21.6792 177.778 21.6792C175.843 21.6792 174.236 22.3267 172.956 23.6199C171.675 24.915 171.035 26.5422 171.035 28.5053C171.035 30.4683 171.677 32.0974 172.956 33.3906Z" fill="#071222"/>
<path d="M199.111 21.4286C200.278 18.7828 202.468 17.4598 205.683 17.4598V22.4528C203.919 22.3396 202.382 22.7589 201.074 23.7108C199.766 24.6645 199.111 26.2342 199.111 28.4254V39.1776H194.504V17.8458H199.111V21.4286Z" fill="#071222"/>
<path d="M225.009 9.30554H229.617V39.1723H225.009V36.1016C223.274 38.5192 220.786 39.7271 217.542 39.7271C214.613 39.7271 212.11 38.6398 210.033 36.4634C207.957 34.287 206.92 31.6356 206.92 28.5055C206.92 25.3475 207.957 22.6887 210.033 20.5272C212.11 18.3656 214.613 17.2839 217.542 17.2839C220.786 17.2839 223.274 18.4788 225.009 20.8667V9.30554ZM213.447 33.3908C214.728 34.6859 216.334 35.3316 218.27 35.3316C220.203 35.3316 221.81 34.684 223.09 33.3908C224.37 32.0976 225.01 30.4685 225.01 28.5055C225.01 26.5424 224.37 24.9152 223.09 23.6201C221.81 22.3269 220.203 21.6794 218.27 21.6794C216.334 21.6794 214.728 22.3269 213.447 23.6201C212.167 24.9152 211.527 26.5424 211.527 28.5055C211.527 30.4685 212.167 32.0976 213.447 33.3908Z" fill="#071222"/>
<path d="M35.6913 24.9861V44.7909H22.9557V49.9991H35.3202L40.8735 44.4458V41.0967H44.2226L49.7443 35.5769V24.9879H35.6913V24.9861ZM44.5343 35.9201H40.8698V30.1683H44.5343V35.9201Z" fill="url(#paint0_linear_989_3817)"/>
<path d="M35.6913 24.9861V44.7909H22.9557V49.9991H35.3202L40.8735 44.4458V41.0967H44.2226L49.7443 35.5769V24.9879H35.6913V24.9861ZM44.5343 35.9201H40.8698V30.1683H44.5343V35.9201Z" fill="black" fill-opacity="0.2"/>
<path d="M35.6913 24.9861V44.7909H22.9557V49.9991H35.3202L40.8735 44.4458V41.0967H44.2226L49.7443 35.5769V24.9879H35.6913V24.9861ZM44.5343 35.9201H40.8698V30.1683H44.5343V35.9201Z" fill="black" fill-opacity="0.2"/>
<path d="M35.6913 24.9861V44.7909H22.9557V49.9991H35.3202L40.8735 44.4458V41.0967H44.2226L49.7443 35.5769V24.9879H35.6913V24.9861ZM44.5343 35.9201H40.8698V30.1683H44.5343V35.9201Z" fill="black" fill-opacity="0.2"/>
<path d="M35.6913 24.9861V44.7909H22.9557V49.9991H35.3202L40.8735 44.4458V41.0967H44.2226L49.7443 35.5769V24.9879H35.6913V24.9861ZM44.5343 35.9201H40.8698V30.1683H44.5343V35.9201Z" fill="black" fill-opacity="0.2"/>
<path d="M35.6913 24.9861V44.7909H22.9557V49.9991H35.3202L40.8735 44.4458V41.0967H44.2226L49.7443 35.5769V24.9879H35.6913V24.9861ZM44.5343 35.9201H40.8698V30.1683H44.5343V35.9201Z" fill="black" fill-opacity="0.2"/>
<path d="M35.6913 24.9861V44.7909H22.9557V49.9991H35.3202L40.8735 44.4458V41.0967H44.2226L49.7443 35.5769V24.9879H35.6913V24.9861ZM44.5343 35.9201H40.8698V30.1683H44.5343V35.9201Z" fill="black" fill-opacity="0.2"/>
<path d="M35.6913 24.9861V44.7909H22.9557V49.9991H35.3202L40.8735 44.4458V41.0967H44.2226L49.7443 35.5769V24.9879H35.6913V24.9861ZM44.5343 35.9201H40.8698V30.1683H44.5343V35.9201Z" fill="black" fill-opacity="0.2"/>
<path d="M35.6913 24.9861V44.7909H22.9557V49.9991H35.3202L40.8735 44.4458V41.0967H44.2226L49.7443 35.5769V24.9879H35.6913V24.9861ZM44.5343 35.9201H40.8698V30.1683H44.5343V35.9201Z" fill="black" fill-opacity="0.2"/>
<path d="M35.6913 24.9861V44.7909H22.9557V49.9991H35.3202L40.8735 44.4458V41.0967H44.2226L49.7443 35.5769V24.9879H35.6913V24.9861ZM44.5343 35.9201H40.8698V30.1683H44.5343V35.9201Z" fill="black" fill-opacity="0.2"/>
<path d="M44.5339 8.90047L40.8695 5.20818L40.8416 5.18034L35.6891 0.0278246L35.6613 0H14.053L8.87265 5.18034V8.90047H5.15252L0 14.053V35.9192L8.87265 44.764V44.7918H8.90048L14.053 50H14.0808V14.0808H49.744L44.5339 8.90047ZM8.87265 37.4351L7.32708 35.9173L5.18035 33.7706V14.0808H8.87265V37.4351ZM14.0808 8.90047V5.18034H33.5145L35.6891 7.35491L37.2068 8.90047H14.0808Z" fill="url(#paint1_linear_989_3817)"/>
<path d="M44.5339 8.90047L40.8695 5.20818L40.8416 5.18034L35.6891 0.0278246L35.6613 0H14.053L8.87265 5.18034V8.90047H5.15252L0 14.053V35.9192L8.87265 44.764V44.7918H8.90048L14.053 50H14.0808V14.0808H49.744L44.5339 8.90047ZM8.87265 37.4351L7.32708 35.9173L5.18035 33.7706V14.0808H8.87265V37.4351ZM14.0808 8.90047V5.18034H33.5145L35.6891 7.35491L37.2068 8.90047H14.0808Z" fill="black" fill-opacity="0.2"/>
<path d="M44.5339 8.90047L40.8695 5.20818L40.8416 5.18034L35.6891 0.0278246L35.6613 0H14.053L8.87265 5.18034V8.90047H5.15252L0 14.053V35.9192L8.87265 44.764V44.7918H8.90048L14.053 50H14.0808V14.0808H49.744L44.5339 8.90047ZM8.87265 37.4351L7.32708 35.9173L5.18035 33.7706V14.0808H8.87265V37.4351ZM14.0808 8.90047V5.18034H33.5145L35.6891 7.35491L37.2068 8.90047H14.0808Z" fill="black" fill-opacity="0.2"/>
<path d="M44.5339 8.90047L40.8695 5.20818L40.8416 5.18034L35.6891 0.0278246L35.6613 0H14.053L8.87265 5.18034V8.90047H5.15252L0 14.053V35.9192L8.87265 44.764V44.7918H8.90048L14.053 50H14.0808V14.0808H49.744L44.5339 8.90047ZM8.87265 37.4351L7.32708 35.9173L5.18035 33.7706V14.0808H8.87265V37.4351ZM14.0808 8.90047V5.18034H33.5145L35.6891 7.35491L37.2068 8.90047H14.0808Z" fill="black" fill-opacity="0.2"/>
<path d="M44.5339 8.90047L40.8695 5.20818L40.8416 5.18034L35.6891 0.0278246L35.6613 0H14.053L8.87265 5.18034V8.90047H5.15252L0 14.053V35.9192L8.87265 44.764V44.7918H8.90048L14.053 50H14.0808V14.0808H49.744L44.5339 8.90047ZM8.87265 37.4351L7.32708 35.9173L5.18035 33.7706V14.0808H8.87265V37.4351ZM14.0808 8.90047V5.18034H33.5145L35.6891 7.35491L37.2068 8.90047H14.0808Z" fill="black" fill-opacity="0.2"/>
<path d="M44.5339 8.90047L40.8695 5.20818L40.8416 5.18034L35.6891 0.0278246L35.6613 0H14.053L8.87265 5.18034V8.90047H5.15252L0 14.053V35.9192L8.87265 44.764V44.7918H8.90048L14.053 50H14.0808V14.0808H49.744L44.5339 8.90047ZM8.87265 37.4351L7.32708 35.9173L5.18035 33.7706V14.0808H8.87265V37.4351ZM14.0808 8.90047V5.18034H33.5145L35.6891 7.35491L37.2068 8.90047H14.0808Z" fill="black" fill-opacity="0.2"/>
<path d="M44.5339 8.90047L40.8695 5.20818L40.8416 5.18034L35.6891 0.0278246L35.6613 0H14.053L8.87265 5.18034V8.90047H5.15252L0 14.053V35.9192L8.87265 44.764V44.7918H8.90048L14.053 50H14.0808V14.0808H49.744L44.5339 8.90047ZM8.87265 37.4351L7.32708 35.9173L5.18035 33.7706V14.0808H8.87265V37.4351ZM14.0808 8.90047V5.18034H33.5145L35.6891 7.35491L37.2068 8.90047H14.0808Z" fill="black" fill-opacity="0.2"/>
<path d="M44.5339 8.90047L40.8695 5.20818L40.8416 5.18034L35.6891 0.0278246L35.6613 0H14.053L8.87265 5.18034V8.90047H5.15252L0 14.053V35.9192L8.87265 44.764V44.7918H8.90048L14.053 50H14.0808V14.0808H49.744L44.5339 8.90047ZM8.87265 37.4351L7.32708 35.9173L5.18035 33.7706V14.0808H8.87265V37.4351ZM14.0808 8.90047V5.18034H33.5145L35.6891 7.35491L37.2068 8.90047H14.0808Z" fill="black" fill-opacity="0.2"/>
<path d="M44.5339 8.90047L40.8695 5.20818L40.8416 5.18034L35.6891 0.0278246L35.6613 0H14.053L8.87265 5.18034V8.90047H5.15252L0 14.053V35.9192L8.87265 44.764V44.7918H8.90048L14.053 50H14.0808V14.0808H49.744L44.5339 8.90047ZM8.87265 37.4351L7.32708 35.9173L5.18035 33.7706V14.0808H8.87265V37.4351ZM14.0808 8.90047V5.18034H33.5145L35.6891 7.35491L37.2068 8.90047H14.0808Z" fill="black" fill-opacity="0.2"/>
<path d="M44.5339 8.90047L40.8695 5.20818L40.8416 5.18034L35.6891 0.0278246L35.6613 0H14.053L8.87265 5.18034V8.90047H5.15252L0 14.053V35.9192L8.87265 44.764V44.7918H8.90048L14.053 50H14.0808V14.0808H49.744L44.5339 8.90047ZM8.87265 37.4351L7.32708 35.9173L5.18035 33.7706V14.0808H8.87265V37.4351ZM14.0808 8.90047V5.18034H33.5145L35.6891 7.35491L37.2068 8.90047H14.0808Z" fill="black" fill-opacity="0.2"/>
<path d="M35.6806 35.9061V41.0939H22.9394V49.9832H17.7516V35.9061H35.6806Z" fill="url(#paint2_linear_989_3817)"/>
<path d="M35.6806 35.9061V41.0939H22.9394V49.9832H17.7516V35.9061H35.6806Z" fill="black" fill-opacity="0.2"/>
<path d="M35.6806 35.9061V41.0939H22.9394V49.9832H17.7516V35.9061H35.6806Z" fill="black" fill-opacity="0.2"/>
<path d="M35.6806 35.9061V41.0939H22.9394V49.9832H17.7516V35.9061H35.6806Z" fill="black" fill-opacity="0.2"/>
<path d="M35.6806 35.9061V41.0939H22.9394V49.9832H17.7516V35.9061H35.6806Z" fill="black" fill-opacity="0.2"/>
<path d="M35.6806 35.9061V41.0939H22.9394V49.9832H17.7516V35.9061H35.6806Z" fill="black" fill-opacity="0.2"/>
<path d="M35.6806 35.9061V41.0939H22.9394V49.9832H17.7516V35.9061H35.6806Z" fill="black" fill-opacity="0.2"/>
<path d="M35.6806 35.9061V41.0939H22.9394V49.9832H17.7516V35.9061H35.6806Z" fill="black" fill-opacity="0.2"/>
<path d="M35.6806 35.9061V41.0939H22.9394V49.9832H17.7516V35.9061H35.6806Z" fill="black" fill-opacity="0.2"/>
<path d="M35.6806 35.9061V41.0939H22.9394V49.9832H17.7516V35.9061H35.6806Z" fill="black" fill-opacity="0.2"/>
<path d="M18.1349 0H14.0807V5.18034H18.1349V0Z" fill="url(#paint3_linear_989_3817)"/>
<path d="M18.1349 0H14.0807V5.18034H18.1349V0Z" fill="black" fill-opacity="0.2"/>
<path d="M18.1349 0H14.0807V5.18034H18.1349V0Z" fill="black" fill-opacity="0.2"/>
<path d="M18.1349 0H14.0807V5.18034H18.1349V0Z" fill="black" fill-opacity="0.2"/>
<path d="M18.1349 0H14.0807V5.18034H18.1349V0Z" fill="black" fill-opacity="0.2"/>
<path d="M18.1349 0H14.0807V5.18034H18.1349V0Z" fill="black" fill-opacity="0.2"/>
<path d="M18.1349 0H14.0807V5.18034H18.1349V0Z" fill="black" fill-opacity="0.2"/>
<path d="M18.1349 0H14.0807V5.18034H18.1349V0Z" fill="black" fill-opacity="0.2"/>
<path d="M18.1349 0H14.0807V5.18034H18.1349V0Z" fill="black" fill-opacity="0.2"/>
<path d="M18.1349 0H14.0807V5.18034H18.1349V0Z" fill="black" fill-opacity="0.2"/>
<path d="M18.1349 8.89722H14.0807V14.0776H18.1349V8.89722Z" fill="url(#paint4_linear_989_3817)"/>
<path d="M18.1349 8.89722H14.0807V14.0776H18.1349V8.89722Z" fill="black" fill-opacity="0.2"/>
<path d="M18.1349 8.89722H14.0807V14.0776H18.1349V8.89722Z" fill="black" fill-opacity="0.2"/>
<path d="M18.1349 8.89722H14.0807V14.0776H18.1349V8.89722Z" fill="black" fill-opacity="0.2"/>
<path d="M18.1349 8.89722H14.0807V14.0776H18.1349V8.89722Z" fill="black" fill-opacity="0.2"/>
<path d="M18.1349 8.89722H14.0807V14.0776H18.1349V8.89722Z" fill="black" fill-opacity="0.2"/>
<path d="M18.1349 8.89722H14.0807V14.0776H18.1349V8.89722Z" fill="black" fill-opacity="0.2"/>
<path d="M18.1349 8.89722H14.0807V14.0776H18.1349V8.89722Z" fill="black" fill-opacity="0.2"/>
<path d="M18.1349 8.89722H14.0807V14.0776H18.1349V8.89722Z" fill="black" fill-opacity="0.2"/>
<path d="M18.1349 8.89722H14.0807V14.0776H18.1349V8.89722Z" fill="black" fill-opacity="0.2"/>
<path d="M40.8717 41.1039V35.9236H44.9258L44.2207 41.1039H40.8717Z" fill="url(#paint5_linear_989_3817)"/>
<path d="M40.8717 41.1039V35.9236H44.9258L44.2207 41.1039H40.8717Z" fill="black" fill-opacity="0.2"/>
<path d="M40.8717 41.1039V35.9236H44.9258L44.2207 41.1039H40.8717Z" fill="black" fill-opacity="0.2"/>
<path d="M40.8717 41.1039V35.9236H44.9258L44.2207 41.1039H40.8717Z" fill="black" fill-opacity="0.2"/>
<path d="M40.8717 41.1039V35.9236H44.9258L44.2207 41.1039H40.8717Z" fill="black" fill-opacity="0.2"/>
<path d="M40.8717 41.1039V35.9236H44.9258L44.2207 41.1039H40.8717Z" fill="black" fill-opacity="0.2"/>
<path d="M40.8717 41.1039V35.9236H44.9258L44.2207 41.1039H40.8717Z" fill="black" fill-opacity="0.2"/>
<path d="M40.8717 41.1039V35.9236H44.9258L44.2207 41.1039H40.8717Z" fill="black" fill-opacity="0.2"/>
<path d="M40.8717 41.1039V35.9236H44.9258L44.2207 41.1039H40.8717Z" fill="black" fill-opacity="0.2"/>
<path d="M40.8717 41.1039V35.9236H44.9258L44.2207 41.1039H40.8717Z" fill="black" fill-opacity="0.2"/>
<path d="M35.6812 35.9061V41.0865H31.6271L32.3321 35.9061H35.6812Z" fill="url(#paint6_linear_989_3817)"/>
<path d="M35.6812 35.9061V41.0865H31.6271L32.3321 35.9061H35.6812Z" fill="black" fill-opacity="0.2"/>
<path d="M35.6812 35.9061V41.0865H31.6271L32.3321 35.9061H35.6812Z" fill="black" fill-opacity="0.2"/>
<path d="M35.6812 35.9061V41.0865H31.6271L32.3321 35.9061H35.6812Z" fill="black" fill-opacity="0.2"/>
<path d="M35.6812 35.9061V41.0865H31.6271L32.3321 35.9061H35.6812Z" fill="black" fill-opacity="0.2"/>
<path d="M35.6812 35.9061V41.0865H31.6271L32.3321 35.9061H35.6812Z" fill="black" fill-opacity="0.2"/>
<path d="M35.6812 35.9061V41.0865H31.6271L32.3321 35.9061H35.6812Z" fill="black" fill-opacity="0.2"/>
<path d="M35.6812 35.9061V41.0865H31.6271L32.3321 35.9061H35.6812Z" fill="black" fill-opacity="0.2"/>
<path d="M35.6812 35.9061V41.0865H31.6271L32.3321 35.9061H35.6812Z" fill="black" fill-opacity="0.2"/>
<path d="M35.6812 35.9061V41.0865H31.6271L32.3321 35.9061H35.6812Z" fill="black" fill-opacity="0.2"/>
<path d="M8.87234 8.89722V14.0776H4.81824L5.42682 8.89722H8.87234Z" fill="url(#paint7_linear_989_3817)"/>
<path d="M8.87234 8.89722V14.0776H4.81824L5.42682 8.89722H8.87234Z" fill="black" fill-opacity="0.2"/>
<path d="M8.87234 8.89722V14.0776H4.81824L5.42682 8.89722H8.87234Z" fill="black" fill-opacity="0.2"/>
<path d="M8.87234 8.89722V14.0776H4.81824L5.42682 8.89722H8.87234Z" fill="black" fill-opacity="0.2"/>
<path d="M8.87234 8.89722V14.0776H4.81824L5.42682 8.89722H8.87234Z" fill="black" fill-opacity="0.2"/>
<path d="M8.87234 8.89722V14.0776H4.81824L5.42682 8.89722H8.87234Z" fill="black" fill-opacity="0.2"/>
<path d="M8.87234 8.89722V14.0776H4.81824L5.42682 8.89722H8.87234Z" fill="black" fill-opacity="0.2"/>
<path d="M8.87234 8.89722V14.0776H4.81824L5.42682 8.89722H8.87234Z" fill="black" fill-opacity="0.2"/>
<path d="M8.87234 8.89722V14.0776H4.81824L5.42682 8.89722H8.87234Z" fill="black" fill-opacity="0.2"/>
<path d="M8.87234 8.89722V14.0776H4.81824L5.42682 8.89722H8.87234Z" fill="black" fill-opacity="0.2"/>
<path d="M8.87258 37.4378V44.7945L-6.10352e-05 35.9219L5.18029 33.7751L8.87258 37.4378Z" fill="url(#paint8_linear_989_3817)"/>
<path d="M8.87258 37.4378V44.7945L-6.10352e-05 35.9219L5.18029 33.7751L8.87258 37.4378Z" fill="black" fill-opacity="0.2"/>
<path d="M8.87258 37.4378V44.7945L-6.10352e-05 35.9219L5.18029 33.7751L8.87258 37.4378Z" fill="black" fill-opacity="0.2"/>
<path d="M8.87258 37.4378V44.7945L-6.10352e-05 35.9219L5.18029 33.7751L8.87258 37.4378Z" fill="black" fill-opacity="0.2"/>
<path d="M8.87258 37.4378V44.7945L-6.10352e-05 35.9219L5.18029 33.7751L8.87258 37.4378Z" fill="black" fill-opacity="0.2"/>
<path d="M8.87258 37.4378V44.7945L-6.10352e-05 35.9219L5.18029 33.7751L8.87258 37.4378Z" fill="black" fill-opacity="0.2"/>
<path d="M8.87258 37.4378V44.7945L-6.10352e-05 35.9219L5.18029 33.7751L8.87258 37.4378Z" fill="black" fill-opacity="0.2"/>
<path d="M8.87258 37.4378V44.7945L-6.10352e-05 35.9219L5.18029 33.7751L8.87258 37.4378Z" fill="black" fill-opacity="0.2"/>
<path d="M8.87258 37.4378V44.7945L-6.10352e-05 35.9219L5.18029 33.7751L8.87258 37.4378Z" fill="black" fill-opacity="0.2"/>
<path d="M8.87258 37.4378V44.7945L-6.10352e-05 35.9219L5.18029 33.7751L8.87258 37.4378Z" fill="black" fill-opacity="0.2"/>
<defs>
<linearGradient id="paint0_linear_989_3817" x1="36.3504" y1="-39.1584" x2="36.3504" y2="43.6987" gradientUnits="userSpaceOnUse">
<stop stop-color="#FFCA34"/>
<stop offset="0.4944" stop-color="#EB2F91"/>
<stop offset="1" stop-color="#1150E8"/>
</linearGradient>
<linearGradient id="paint1_linear_989_3817" x1="24.8726" y1="-128.222" x2="24.8726" y2="37.4058" gradientUnits="userSpaceOnUse">
<stop stop-color="#FFCA34"/>
<stop offset="0.4944" stop-color="#EB2F91"/>
<stop offset="1" stop-color="#1150E8"/>
</linearGradient>
<linearGradient id="paint2_linear_989_3817" x1="26.7163" y1="-0.193864" x2="26.7163" y2="46.4374" gradientUnits="userSpaceOnUse">
<stop stop-color="#FFCA34"/>
<stop offset="0.4944" stop-color="#EB2F91"/>
<stop offset="1" stop-color="#1150E8"/>
</linearGradient>
<linearGradient id="paint3_linear_989_3817" x1="16.1079" y1="-13.2847" x2="16.1079" y2="3.87549" gradientUnits="userSpaceOnUse">
<stop stop-color="#FFCA34"/>
<stop offset="0.4944" stop-color="#EB2F91"/>
<stop offset="1" stop-color="#1150E8"/>
</linearGradient>
<linearGradient id="paint4_linear_989_3817" x1="16.1079" y1="-4.38752" x2="16.1079" y2="12.7727" gradientUnits="userSpaceOnUse">
<stop stop-color="#FFCA34"/>
<stop offset="0.4944" stop-color="#EB2F91"/>
<stop offset="1" stop-color="#1150E8"/>
</linearGradient>
<linearGradient id="paint5_linear_989_3817" x1="42.8988" y1="22.6388" x2="42.8988" y2="39.7991" gradientUnits="userSpaceOnUse">
<stop stop-color="#FFCA34"/>
<stop offset="0.4944" stop-color="#EB2F91"/>
<stop offset="1" stop-color="#1150E8"/>
</linearGradient>
<linearGradient id="paint6_linear_989_3817" x1="33.6542" y1="22.6214" x2="33.6542" y2="39.7816" gradientUnits="userSpaceOnUse">
<stop stop-color="#FFCA34"/>
<stop offset="0.4944" stop-color="#EB2F91"/>
<stop offset="1" stop-color="#1150E8"/>
</linearGradient>
<linearGradient id="paint7_linear_989_3817" x1="6.84534" y1="-4.38752" x2="6.84534" y2="12.7727" gradientUnits="userSpaceOnUse">
<stop stop-color="#FFCA34"/>
<stop offset="0.4944" stop-color="#EB2F91"/>
<stop offset="1" stop-color="#1150E8"/>
</linearGradient>
<linearGradient id="paint8_linear_989_3817" x1="4.43638" y1="5.51656" x2="4.43638" y2="42.0189" gradientUnits="userSpaceOnUse">
<stop stop-color="#FFCA34"/>
<stop offset="0.4944" stop-color="#EB2F91"/>
<stop offset="1" stop-color="#1150E8"/>
</linearGradient>
</defs>
</svg>
