<svg width="190" height="320" viewBox="0 0 190 320" fill="none" xmlns="http://www.w3.org/2000/svg">
<rect width="190" height="320" rx="16" fill="#14A800"/>
<g clip-path="url(#clip0_989_3798)">
<path fill-rule="evenodd" clip-rule="evenodd" d="M61 170H84.416V134.883C84.416 133.748 86.0484 133.572 86.2901 134.681L91.8148 160.039H105.864V151.312C105.864 150.789 106.289 150.364 106.812 150.364H129V102H105.584V110.727C105.584 111.251 105.16 111.675 104.636 111.675H81.2777L83.1973 120.486C83.3261 121.077 82.876 121.636 82.2712 121.636H61V170Z" fill="white"/>
</g>
<path d="M74.1186 182.818H75.983L79.2244 190.733H79.3438L82.5852 182.818H84.4496V193H82.9879V185.632H82.8935L79.8906 192.985H78.6776L75.6747 185.627H75.5803V193H74.1186V182.818ZM89.7804 193.154C89.0645 193.154 88.4397 192.99 87.9061 192.662C87.3725 192.334 86.9582 191.875 86.6632 191.285C86.3682 190.695 86.2207 190.005 86.2207 189.217C86.2207 188.424 86.3682 187.732 86.6632 187.138C86.9582 186.545 87.3725 186.085 87.9061 185.756C88.4397 185.428 89.0645 185.264 89.7804 185.264C90.4963 185.264 91.121 185.428 91.6547 185.756C92.1883 186.085 92.6026 186.545 92.8975 187.138C93.1925 187.732 93.34 188.424 93.34 189.217C93.34 190.005 93.1925 190.695 92.8975 191.285C92.6026 191.875 92.1883 192.334 91.6547 192.662C91.121 192.99 90.4963 193.154 89.7804 193.154ZM89.7853 191.906C90.2493 191.906 90.6338 191.784 90.9387 191.538C91.2437 191.293 91.469 190.967 91.6149 190.559C91.764 190.151 91.8386 189.702 91.8386 189.212C91.8386 188.724 91.764 188.277 91.6149 187.869C91.469 187.458 91.2437 187.129 90.9387 186.88C90.6338 186.631 90.2493 186.507 89.7853 186.507C89.318 186.507 88.9302 186.631 88.622 186.88C88.3171 187.129 88.09 187.458 87.9409 187.869C87.795 188.277 87.7221 188.724 87.7221 189.212C87.7221 189.702 87.795 190.151 87.9409 190.559C88.09 190.967 88.3171 191.293 88.622 191.538C88.9302 191.784 89.318 191.906 89.7853 191.906ZM94.9993 193V185.364H96.4361V186.577H96.5156C96.6548 186.166 96.9001 185.843 97.2514 185.607C97.6061 185.369 98.0071 185.249 98.4545 185.249C98.5473 185.249 98.6567 185.253 98.7827 185.259C98.9119 185.266 99.013 185.274 99.0859 185.284V186.706C99.0263 186.689 98.9202 186.671 98.7678 186.651C98.6153 186.628 98.4628 186.616 98.3104 186.616C97.959 186.616 97.6458 186.691 97.3707 186.84C97.099 186.986 96.8835 187.19 96.7244 187.452C96.5653 187.71 96.4858 188.005 96.4858 188.337V193H94.9993ZM100.372 195.864V185.364H101.824V186.602H101.948C102.035 186.442 102.159 186.259 102.321 186.05C102.484 185.841 102.709 185.659 102.997 185.503C103.286 185.344 103.667 185.264 104.141 185.264C104.757 185.264 105.307 185.42 105.791 185.732C106.275 186.043 106.655 186.492 106.93 187.079C107.208 187.665 107.347 188.371 107.347 189.197C107.347 190.022 107.21 190.73 106.935 191.32C106.66 191.906 106.282 192.359 105.801 192.677C105.321 192.992 104.772 193.149 104.156 193.149C103.692 193.149 103.312 193.071 103.017 192.915C102.726 192.76 102.497 192.577 102.331 192.369C102.165 192.16 102.038 191.974 101.948 191.812H101.859V195.864H100.372ZM101.829 189.182C101.829 189.719 101.907 190.189 102.063 190.594C102.218 190.998 102.444 191.315 102.739 191.543C103.034 191.769 103.395 191.881 103.823 191.881C104.267 191.881 104.638 191.764 104.936 191.528C105.235 191.29 105.46 190.967 105.612 190.559C105.768 190.151 105.846 189.692 105.846 189.182C105.846 188.678 105.77 188.226 105.617 187.825C105.468 187.424 105.243 187.107 104.941 186.875C104.643 186.643 104.27 186.527 103.823 186.527C103.392 186.527 103.027 186.638 102.729 186.86C102.434 187.082 102.21 187.392 102.058 187.79C101.905 188.187 101.829 188.652 101.829 189.182ZM110.499 188.466V193H109.013V182.818H110.48V186.607H110.574C110.753 186.196 111.026 185.869 111.394 185.627C111.762 185.385 112.243 185.264 112.836 185.264C113.36 185.264 113.817 185.372 114.208 185.587C114.603 185.803 114.908 186.124 115.123 186.552C115.342 186.976 115.451 187.506 115.451 188.143V193H113.965V188.322C113.965 187.762 113.82 187.327 113.532 187.019C113.244 186.708 112.843 186.552 112.329 186.552C111.978 186.552 111.663 186.626 111.384 186.776C111.109 186.925 110.892 187.143 110.733 187.432C110.577 187.717 110.499 188.062 110.499 188.466Z" fill="white"/>
<defs>
<clipPath id="clip0_989_3798">
<rect width="68" height="68" fill="white" transform="translate(61 102)"/>
</clipPath>
</defs>
</svg>
