<svg width="190" height="320" viewBox="0 0 190 320" fill="none" xmlns="http://www.w3.org/2000/svg">
<rect width="190" height="320" rx="16" fill="black"/>
<g clip-path="url(#clip0_989_3803)">
<path d="M120.163 138.312C119.558 138.312 119.007 138.202 118.457 138.037H118.402C118.347 138.037 118.292 137.982 118.182 137.982C118.017 137.927 117.852 137.817 117.632 137.707L117.577 137.652C116.861 137.267 116.201 136.716 115.706 136.056C114.165 134.02 114.165 131.214 115.706 129.233C116.311 128.407 117.192 127.802 118.127 127.417L118.237 127.362C118.512 127.252 118.732 127.197 118.897 127.142L119.062 127.087C119.448 127.032 119.833 126.977 120.218 126.977C122.529 126.977 124.455 126.261 125.776 124.941C126.986 123.675 127.647 121.969 127.647 119.988V113H113.56V117.677C113.56 118.558 113.56 119.493 113.56 120.374C113.56 122.189 112.514 124.721 110.588 125.326C109.378 125.711 107.837 125.106 106.571 125.271C105.526 125.381 104.48 125.766 103.6 126.316C101.784 127.472 100.574 129.398 100.298 131.544C100.188 132.369 100.243 132.975 100.298 133.415C100.353 133.91 100.353 134.075 100.188 134.57C99.8582 135.561 99.0878 136.441 98.0974 137.102C97.1069 137.762 95.9513 138.147 94.9058 138.147H94.7958H94.6857C93.5852 138.147 92.4847 137.762 91.4942 137.102C90.5037 136.441 89.7884 135.506 89.4032 134.57C89.2381 134.075 89.2381 133.91 89.2931 133.415C89.3481 132.975 89.4032 132.369 89.2931 131.544C89.073 129.398 87.8074 127.472 85.9915 126.316C85.1111 125.766 84.0656 125.381 83.0201 125.271C81.7545 125.106 80.2138 125.711 79.0032 125.326C77.0772 124.666 76.0317 122.189 76.0317 120.374C76.0317 119.493 76.0317 118.558 76.0317 117.677V113H62.055V120.098C62.055 122.079 62.6603 123.785 63.9259 125.051C65.2466 126.371 67.1725 127.087 69.4836 127.087C69.8688 127.087 70.254 127.142 70.6392 127.197L70.8042 127.252C70.9693 127.252 71.1894 127.362 71.4646 127.472L71.5746 127.527C72.5101 127.912 73.3354 128.517 73.9958 129.343C75.5365 131.324 75.5365 134.13 73.9958 136.166C73.5005 136.826 72.8402 137.377 72.1249 137.762H71.9598C71.7397 137.872 71.5746 137.927 71.4095 138.037C71.3545 138.037 71.2444 138.092 71.1894 138.092H71.1344C70.5841 138.257 69.9788 138.367 69.4286 138.367C64.9714 138.312 62 141.063 62 145.135C62 148.327 63.4307 149.978 64.6413 150.803C66.127 151.794 67.9429 152.069 69.6487 152.234H69.7587C70.1989 152.289 70.5841 152.399 71.0243 152.564L71.2444 152.619H71.2995C72.455 153.004 73.4455 153.83 73.9958 154.875C74.3259 155.48 74.546 156.251 74.6561 157.076C74.7111 157.406 74.7111 157.737 74.7111 158.012C74.7111 158.232 74.7661 158.507 74.7661 158.782V164.89H88.6878V157.792C88.6878 155.921 87.9725 154.16 86.6519 152.839C86.5968 152.784 86.5418 152.729 86.4868 152.674C86.3767 152.564 86.2667 152.509 86.2116 152.454L86.1566 152.399C84.6709 151.078 82.6899 151.078 81.2593 151.023C81.0392 151.023 80.819 151.023 80.5989 151.023L80.4889 150.968L80.0487 150.858L79.6085 150.748L79.1132 150.583C78.618 150.363 78.1778 150.088 77.7376 149.703L77.6275 149.648C76.3069 148.492 75.7016 147.061 75.6466 145.301C75.6466 144.035 76.0317 142.824 76.8021 141.834C77.5725 140.843 78.618 140.128 79.7735 139.798C80.9841 139.468 83.1852 139.413 84.2307 139.798C86.1566 140.403 87.5873 142.219 87.6974 144.255C87.6974 144.42 87.6974 144.585 87.6974 144.805C87.6974 145.411 87.6423 146.236 87.9725 147.281C88.963 150.143 91.6593 152.124 94.6857 152.124C97.7672 152.124 100.463 150.143 101.399 147.281C101.729 146.236 101.729 145.411 101.674 144.805C101.674 144.585 101.674 144.42 101.674 144.255C101.784 142.219 103.16 140.403 105.141 139.798C106.186 139.468 108.442 139.468 109.598 139.798C110.753 140.128 111.854 140.898 112.569 141.834C113.34 142.824 113.725 144.035 113.725 145.301C113.725 147.061 113.065 148.492 111.744 149.648L111.634 149.703C111.249 150.033 110.753 150.363 110.258 150.583L109.763 150.748L109.323 150.858L109.158 150.968L108.938 151.023C108.717 151.023 108.497 151.023 108.277 151.023C106.847 151.023 104.866 151.078 103.38 152.399L103.27 152.454C103.215 152.509 103.105 152.619 102.995 152.674C102.94 152.729 102.885 152.784 102.83 152.839C101.509 154.16 100.794 155.976 100.794 157.792V165H114.715V158.892C114.715 158.617 114.77 158.342 114.77 158.122C114.77 157.792 114.825 157.516 114.825 157.186C114.935 156.361 115.156 155.59 115.486 154.985C116.091 153.94 117.081 153.114 118.182 152.729H118.237L118.457 152.674C118.897 152.509 119.283 152.399 119.723 152.344H119.833C121.539 152.179 123.354 151.904 124.84 150.913C126.051 150.088 127.481 148.437 127.481 145.246C127.592 141.063 124.62 138.312 120.163 138.312Z" fill="#FFDA34"/>
</g>
<path d="M61.1186 182.818H62.983L66.2244 190.733H66.3438L69.5852 182.818H71.4496V193H69.9879V185.632H69.8935L66.8906 192.985H65.6776L62.6747 185.627H62.5803V193H61.1186V182.818ZM76.7804 193.154C76.0645 193.154 75.4397 192.99 74.9061 192.662C74.3725 192.334 73.9582 191.875 73.6632 191.285C73.3682 190.695 73.2207 190.005 73.2207 189.217C73.2207 188.424 73.3682 187.732 73.6632 187.138C73.9582 186.545 74.3725 186.085 74.9061 185.756C75.4397 185.428 76.0645 185.264 76.7804 185.264C77.4963 185.264 78.121 185.428 78.6547 185.756C79.1883 186.085 79.6026 186.545 79.8975 187.138C80.1925 187.732 80.34 188.424 80.34 189.217C80.34 190.005 80.1925 190.695 79.8975 191.285C79.6026 191.875 79.1883 192.334 78.6547 192.662C78.121 192.99 77.4963 193.154 76.7804 193.154ZM76.7853 191.906C77.2493 191.906 77.6338 191.784 77.9387 191.538C78.2437 191.293 78.469 190.967 78.6149 190.559C78.764 190.151 78.8386 189.702 78.8386 189.212C78.8386 188.724 78.764 188.277 78.6149 187.869C78.469 187.458 78.2437 187.129 77.9387 186.88C77.6338 186.631 77.2493 186.507 76.7853 186.507C76.318 186.507 75.9302 186.631 75.622 186.88C75.3171 187.129 75.09 187.458 74.9409 187.869C74.795 188.277 74.7221 188.724 74.7221 189.212C74.7221 189.702 74.795 190.151 74.9409 190.559C75.09 190.967 75.3171 191.293 75.622 191.538C75.9302 191.784 76.318 191.906 76.7853 191.906ZM88.2722 185.364L85.503 193H83.9121L81.138 185.364H82.7338L84.6678 191.24H84.7473L86.6763 185.364H88.2722ZM92.7006 193.154C91.9483 193.154 91.3003 192.993 90.7567 192.672C90.2165 192.347 89.7989 191.891 89.5039 191.305C89.2122 190.715 89.0664 190.024 89.0664 189.232C89.0664 188.449 89.2122 187.76 89.5039 187.163C89.7989 186.567 90.2099 186.101 90.7369 185.766C91.2672 185.432 91.887 185.264 92.5962 185.264C93.0271 185.264 93.4447 185.335 93.8491 185.478C94.2534 185.621 94.6164 185.844 94.9379 186.149C95.2594 186.454 95.5129 186.85 95.6985 187.337C95.8841 187.821 95.9769 188.41 95.9769 189.102V189.629H89.9066V188.516H94.5202C94.5202 188.125 94.4407 187.778 94.2816 187.477C94.1225 187.172 93.8988 186.931 93.6104 186.756C93.3254 186.58 92.9906 186.492 92.6062 186.492C92.1886 186.492 91.824 186.595 91.5124 186.8C91.2042 187.003 90.9656 187.268 90.7965 187.596C90.6308 187.921 90.5479 188.274 90.5479 188.655V189.525C90.5479 190.035 90.6374 190.469 90.8164 190.827C90.9987 191.185 91.2522 191.459 91.5771 191.648C91.9019 191.833 92.2814 191.926 92.7156 191.926C92.9973 191.926 93.2541 191.886 93.4862 191.807C93.7182 191.724 93.9187 191.601 94.0877 191.439C94.2567 191.277 94.386 191.076 94.4755 190.837L95.8825 191.091C95.7698 191.505 95.5676 191.868 95.2759 192.18C94.9876 192.488 94.6246 192.728 94.1871 192.901C93.753 193.07 93.2575 193.154 92.7006 193.154ZM97.6262 193V185.364H99.0531V186.607H99.1475C99.3066 186.186 99.5668 185.857 99.9281 185.622C100.289 185.384 100.722 185.264 101.226 185.264C101.736 185.264 102.164 185.384 102.508 185.622C102.856 185.861 103.113 186.189 103.279 186.607H103.358C103.541 186.199 103.831 185.874 104.229 185.632C104.626 185.387 105.1 185.264 105.65 185.264C106.343 185.264 106.908 185.481 107.346 185.915C107.787 186.35 108.007 187.004 108.007 187.879V193H106.52V188.018C106.52 187.501 106.38 187.127 106.098 186.895C105.816 186.663 105.48 186.547 105.089 186.547C104.605 186.547 104.229 186.696 103.96 186.994C103.692 187.289 103.557 187.669 103.557 188.133V193H102.076V187.924C102.076 187.51 101.947 187.177 101.688 186.925C101.43 186.673 101.093 186.547 100.679 186.547C100.397 186.547 100.137 186.621 99.8983 186.771C99.6629 186.916 99.4724 187.12 99.3265 187.382C99.184 187.644 99.1127 187.947 99.1127 188.292V193H97.6262ZM113.29 193.154C112.538 193.154 111.89 192.993 111.347 192.672C110.806 192.347 110.389 191.891 110.094 191.305C109.802 190.715 109.656 190.024 109.656 189.232C109.656 188.449 109.802 187.76 110.094 187.163C110.389 186.567 110.8 186.101 111.327 185.766C111.857 185.432 112.477 185.264 113.186 185.264C113.617 185.264 114.035 185.335 114.439 185.478C114.843 185.621 115.206 185.844 115.528 186.149C115.849 186.454 116.103 186.85 116.288 187.337C116.474 187.821 116.567 188.41 116.567 189.102V189.629H110.496V188.516H115.11C115.11 188.125 115.031 187.778 114.871 187.477C114.712 187.172 114.489 186.931 114.2 186.756C113.915 186.58 113.58 186.492 113.196 186.492C112.778 186.492 112.414 186.595 112.102 186.8C111.794 187.003 111.555 187.268 111.386 187.596C111.221 187.921 111.138 188.274 111.138 188.655V189.525C111.138 190.035 111.227 190.469 111.406 190.827C111.589 191.185 111.842 191.459 112.167 191.648C112.492 191.833 112.871 191.926 113.305 191.926C113.587 191.926 113.844 191.886 114.076 191.807C114.308 191.724 114.509 191.601 114.678 191.439C114.847 191.277 114.976 191.076 115.065 190.837L116.472 191.091C116.36 191.505 116.157 191.868 115.866 192.18C115.577 192.488 115.214 192.728 114.777 192.901C114.343 193.07 113.847 193.154 113.29 193.154ZM119.703 188.466V193H118.216V185.364H119.643V186.607H119.737C119.913 186.202 120.188 185.877 120.563 185.632C120.941 185.387 121.416 185.264 121.99 185.264C122.51 185.264 122.966 185.374 123.357 185.592C123.748 185.808 124.051 186.129 124.267 186.557C124.482 186.984 124.59 187.513 124.59 188.143V193H123.103V188.322C123.103 187.768 122.959 187.336 122.671 187.024C122.382 186.709 121.986 186.552 121.482 186.552C121.138 186.552 120.831 186.626 120.563 186.776C120.298 186.925 120.087 187.143 119.931 187.432C119.779 187.717 119.703 188.062 119.703 188.466ZM130.148 185.364V186.557H125.977V185.364H130.148ZM127.095 183.534H128.582V190.758C128.582 191.046 128.625 191.263 128.711 191.409C128.797 191.552 128.908 191.649 129.044 191.702C129.183 191.752 129.334 191.777 129.497 191.777C129.616 191.777 129.72 191.769 129.81 191.752C129.899 191.736 129.969 191.722 130.019 191.712L130.287 192.94C130.201 192.973 130.078 193.007 129.919 193.04C129.76 193.076 129.561 193.096 129.323 193.099C128.932 193.106 128.567 193.036 128.229 192.891C127.891 192.745 127.617 192.519 127.409 192.214C127.2 191.91 127.095 191.527 127.095 191.066V183.534Z" fill="white"/>
<defs>
<clipPath id="clip0_989_3803">
<rect width="65.5915" height="52" fill="white" transform="translate(62 113)"/>
</clipPath>
</defs>
</svg>
