<svg width="86" height="68" viewBox="0 0 86 68" fill="none" xmlns="http://www.w3.org/2000/svg">
<g clip-path="url(#clip0_989_3992)">
<path d="M76.0593 33.1005C75.2677 33.1005 74.5481 32.9566 73.8286 32.7407H73.7566C73.6847 32.7407 73.6127 32.6688 73.4688 32.6688C73.2529 32.5968 73.037 32.4529 72.7492 32.309L72.6772 32.237C71.7418 31.7333 70.8783 31.0138 70.2307 30.1503C68.2159 27.4878 68.2159 23.818 70.2307 21.2275C71.0222 20.1481 72.1735 19.3566 73.3968 18.8529L73.5407 18.781C73.9005 18.637 74.1884 18.5651 74.4042 18.4931L74.6201 18.4212C75.1238 18.3492 75.6275 18.2772 76.1312 18.2772C79.1534 18.2772 81.672 17.3418 83.3989 15.6148C84.982 13.9598 85.8455 11.7291 85.8455 9.13862V0H67.4243V6.1164C67.4243 7.26772 67.4243 8.491 67.4243 9.64233C67.4243 12.0169 66.0571 15.327 63.5386 16.1185C61.9556 16.6222 59.9407 15.8307 58.2857 16.0466C56.9185 16.1905 55.5513 16.6942 54.4 17.4138C52.0254 18.9249 50.4423 21.4434 50.0825 24.2497C49.9386 25.3291 50.0106 26.1206 50.0825 26.6963C50.1545 27.3439 50.1545 27.5598 49.9386 28.2074C49.5069 29.5026 48.4995 30.654 47.2042 31.5175C45.909 32.381 44.3979 32.8847 43.0307 32.8847H42.8868H42.7429C41.3037 32.8847 39.8645 32.381 38.5693 31.5175C37.2741 30.654 36.3386 29.4307 35.8349 28.2074C35.619 27.5598 35.619 27.3439 35.691 26.6963C35.763 26.1206 35.8349 25.3291 35.691 24.2497C35.4032 21.4434 33.7481 18.9249 31.3735 17.4138C30.2222 16.6942 28.855 16.1905 27.4878 16.0466C25.8328 15.8307 23.818 16.6222 22.2349 16.1185C19.7164 15.255 18.3492 12.0169 18.3492 9.64233C18.3492 8.491 18.3492 7.26772 18.3492 6.1164V0H0.0719577V9.28254C0.0719577 11.873 0.863492 14.1037 2.51852 15.7587C4.2455 17.4857 6.76402 18.4212 9.78624 18.4212C10.2899 18.4212 10.7937 18.4931 11.2974 18.5651L11.5132 18.637C11.7291 18.637 12.0169 18.781 12.3767 18.9249L12.5206 18.9968C13.7439 19.5005 14.8233 20.2921 15.6868 21.3714C17.7016 23.9619 17.7016 27.6317 15.6868 30.2942C15.0392 31.1577 14.1757 31.8772 13.2402 32.381H13.0243C12.7365 32.5249 12.5206 32.5968 12.3048 32.7407C12.2328 32.7407 12.0889 32.8127 12.0169 32.8127H11.945C11.2254 33.0286 10.4339 33.1725 9.71429 33.1725C3.88571 33.1005 0 36.6984 0 42.0233C0 46.1968 1.8709 48.3556 3.45397 49.4349C5.39683 50.7302 7.77143 51.09 10.0021 51.3058H10.146C10.7217 51.3778 11.2254 51.5217 11.8011 51.7376L12.0889 51.8095H12.1608C13.672 52.3132 14.9672 53.3926 15.6868 54.7598C16.1185 55.5513 16.4063 56.5587 16.5503 57.6381C16.6222 58.0698 16.6222 58.5016 16.6222 58.8614C16.6222 59.1492 16.6942 59.509 16.6942 59.8688V67.8561H34.8995V58.5735C34.8995 56.127 33.964 53.8243 32.237 52.0974C32.1651 52.0254 32.0931 51.9534 32.0212 51.8815C31.8772 51.7376 31.7333 51.6656 31.6614 51.5936L31.5894 51.5217C29.6466 49.7947 27.0561 49.7947 25.1852 49.7228C24.8974 49.7228 24.6095 49.7228 24.3217 49.7228L24.1778 49.6508L23.6021 49.5069L23.0265 49.363L22.3788 49.1471C21.7312 48.8593 21.1556 48.4995 20.5799 47.9958L20.436 47.9238C18.709 46.4127 17.9175 44.5418 17.8455 42.2392C17.8455 40.5841 18.3492 39.0011 19.3566 37.7058C20.364 36.4106 21.7312 35.4751 23.2423 35.0434C24.8254 34.6116 27.7037 34.5397 29.0709 35.0434C31.5894 35.8349 33.4603 38.2095 33.6042 40.872C33.6042 41.0878 33.6042 41.3037 33.6042 41.5915C33.6042 42.3831 33.5323 43.4624 33.964 44.8296C35.2593 48.5714 38.7852 51.1619 42.7429 51.1619C46.7725 51.1619 50.2984 48.5714 51.5217 44.8296C51.9534 43.4624 51.9534 42.3831 51.8815 41.5915C51.8815 41.3037 51.8815 41.0878 51.8815 40.872C52.0254 38.2095 53.8243 35.8349 56.4148 35.0434C57.782 34.6116 60.7323 34.6116 62.2434 35.0434C63.7545 35.4751 65.1936 36.4825 66.1291 37.7058C67.1365 39.0011 67.6402 40.5841 67.6402 42.2392C67.6402 44.5418 66.7767 46.4127 65.0497 47.9238L64.9058 47.9958C64.4021 48.4275 63.7545 48.8593 63.1069 49.1471L62.4593 49.363L61.8836 49.5069L61.6677 49.6508L61.3799 49.7228C61.0921 49.7228 60.8042 49.7228 60.5164 49.7228C58.6455 49.7228 56.055 49.7947 54.1122 51.5217L53.9683 51.5936C53.8963 51.6656 53.7524 51.8095 53.6085 51.8815C53.5365 51.9534 53.4645 52.0254 53.3926 52.0974C51.6656 53.8243 50.7302 56.1989 50.7302 58.5735V68H68.9355V60.0127C68.9355 59.6529 69.0074 59.2931 69.0074 59.0053C69.0074 58.5735 69.0794 58.2138 69.0794 57.782C69.2233 56.7026 69.5111 55.6952 69.9429 54.9037C70.7344 53.5365 72.0296 52.4571 73.4688 51.9534H73.5407L73.8286 51.8815C74.4042 51.6656 74.9079 51.5217 75.4836 51.4497H75.6275C77.8582 51.2339 80.2328 50.8741 82.1757 49.5788C83.7587 48.4995 85.6296 46.3407 85.6296 42.1672C85.7735 36.6984 81.8878 33.1005 76.0593 33.1005Z" fill="black"/>
</g>
<defs>
<clipPath id="clip0_989_3992">
<rect width="85.7735" height="68" fill="white"/>
</clipPath>
</defs>
</svg>
